<?xml version="1.0" encoding="UTF-8"?><svg id="Ebene_2" xmlns="http://www.w3.org/2000/svg" viewBox="0 0 500 500"><defs><style>.cls-1{fill:#83ff8c;}</style></defs><g id="Ebene_1-2"><g><path class="cls-1" d="M369.46,415.9c16.49-46.96-.35-99.74-38.08-132.2-35.08-30.18-68.99-46.06-68.99-46.06,35.74,6.78,62.79,18.46,82.67,29.74-20.76-38.63-32.35-93.26-3.22-137.9,4.28,69.27,26.68,116.66,48.37,147.66,17.91-21.94,44.78-58.86,102.91-85.29-13.46-56.46-46.04-105.48-90.56-139.84,5.99,16.99,3.99,37.54-20.03,62.31,3.93-11.95,14.06-48.79,.17-76.17-1.01-.63-1.98-1.3-3-1.92,3.73,12.41,9.25,41.45-5.27,77.25-38.54-32.07-30.5-54.85-14.66-88.13C326.63,9.14,289.39,0,250,0,111.93,0,0,111.93,0,250s111.93,250,250,250c8.82,0,17.53-.47,26.12-1.36,37.63-14.1,76.91-35.95,93.34-82.74ZM439,110.7c-3.33,21.75,25.51,80.8-48.84,97.78,10.66-8.57,43.91-38.19,41.02-72.43,0,0-5.59,38.33-47.25,67.4-17.52-56.54,13.16-66,55.06-92.76Zm-125.2-48.75c10.49,19.28,9.29,46.28,1.49,52.97-1.04-.96-2.08-1.95-3.07-2.98-1.04-1.19-2.16-2.32-3.1-3.61-2.06-2.43-3.77-5.14-5.4-7.83-1.5-2.77-3.01-5.49-4.14-8.3-1.18-2.78-2.21-5.53-3.06-8.19-.85-2.66-1.54-5.21-2.13-7.59-1.14-4.76-1.81-8.81-2.22-11.67-.18-1.43-.35-2.55-.42-3.32-.07-.77-.11-1.18-.11-1.18,0,0-.21,1.65-.27,4.56-.04,2.9,.05,7.08,.74,12.05,.36,2.48,.8,5.17,1.5,7.97,.68,2.8,1.51,5.75,2.65,8.7,1.08,2.97,2.46,5.96,4.04,8.9,1.69,2.88,3.47,5.8,5.65,8.44,1.02,1.37,2.25,2.57,3.39,3.84,.65,.66,1.32,1.3,2,1.93-17.24,3.29-47.87-14.93-45.38-42.35,2.4-26.39,7.11-37.33-1.11-50.51,0,0,32.3,7.61,48.94,38.19Zm-30.29,91.93c14.81,14.64,21.11,39.5,15.86,47.71-1.21-.59-2.42-1.2-3.61-1.87-1.27-.8-2.6-1.52-3.81-2.43-2.54-1.64-4.83-3.64-7.05-5.63-2.12-2.1-4.24-4.17-6.04-6.41-1.83-2.2-3.52-4.42-5.02-6.6-1.5-2.18-2.82-4.31-4.01-6.31-2.34-4.01-4.06-7.51-5.21-9.99-.55-1.25-1.01-2.23-1.29-2.91-.28-.68-.42-1.05-.42-1.05,0,0,.26,1.55,1,4.21,.76,2.65,1.99,6.42,3.97,10.74,1,2.16,2.14,4.48,3.55,6.83,1.39,2.36,2.94,4.81,4.79,7.17,1.8,2.41,3.87,4.74,6.11,6.98,2.33,2.15,4.74,4.32,7.44,6.12,1.3,.96,2.75,1.72,4.13,2.56,.77,.42,1.56,.82,2.34,1.2-14.76,7.7-47.57-.46-52.82-26.04-5.05-24.63-3.76-35.86-14.84-45.58,0,0,31.42-1.93,54.91,21.29Zm-61.95-104.81c14.86,14.69,21.19,39.65,15.92,47.89-1.22-.59-2.43-1.21-3.62-1.87-1.28-.8-2.61-1.52-3.82-2.44-2.55-1.65-4.85-3.65-7.08-5.66-2.13-2.11-4.26-4.18-6.06-6.43-1.84-2.21-3.53-4.43-5.04-6.62-1.5-2.19-2.83-4.33-4.03-6.33-2.34-4.03-4.07-7.54-5.23-10.03-.55-1.25-1.02-2.23-1.29-2.92-.28-.68-.43-1.05-.43-1.05,0,0,.26,1.56,1,4.23,.76,2.66,1.99,6.44,3.99,10.78,1.01,2.16,2.15,4.5,3.56,6.85,1.39,2.37,2.95,4.83,4.81,7.2,1.8,2.42,3.88,4.76,6.13,7.01,2.33,2.16,4.76,4.33,7.47,6.14,1.31,.97,2.76,1.73,4.14,2.57,.78,.42,1.56,.82,2.35,1.21-14.81,7.73-47.76-.46-53.02-26.14-5.07-24.72-3.78-36-14.89-45.75,0,0,31.54-1.94,55.12,21.37ZM95.74,125.35s26.65-16.86,58.48-7.82c20.06,5.7,37.59,24.48,36.94,34.22-1.35,.07-2.71,.11-4.07,.1-1.5-.09-3.02-.08-4.52-.3-3.02-.21-6-.87-8.91-1.54-2.88-.82-5.73-1.61-8.39-2.71-2.67-1.05-5.22-2.18-7.59-3.37-2.37-1.19-4.56-2.42-6.57-3.6-3.99-2.4-7.19-4.63-9.4-6.26-1.09-.83-1.96-1.46-2.53-1.93-.57-.46-.88-.71-.88-.71,0,0,.98,1.24,2.91,3.22,1.94,1.96,4.84,4.67,8.67,7.51,1.92,1.41,4.04,2.9,6.41,4.28,2.35,1.4,4.9,2.8,7.67,3.99,2.74,1.25,5.68,2.29,8.73,3.18,3.08,.77,6.25,1.5,9.48,1.78,1.61,.22,3.24,.18,4.86,.25,.88,0,1.76-.03,2.64-.07-9.24,13.88-41.98,22.56-58.93,2.63-16.32-19.18-20.61-29.66-35.02-32.85Zm71.23,137.27c-24.8-18.4-32.83-29.73-50.93-29.54,0,0,27.16-27.52,67.68-25.52,25.54,1.26,51.68,18.84,53.6,30.65-1.59,.45-3.2,.89-4.83,1.25-1.82,.31-3.62,.74-5.48,.9-3.67,.58-7.4,.63-11.07,.62-3.66-.19-7.3-.34-10.77-.92-3.48-.51-6.84-1.16-10-1.93-3.16-.77-6.12-1.63-8.84-2.48-5.43-1.76-9.87-3.55-12.95-4.87-1.53-.69-2.75-1.21-3.56-1.6-.81-.4-1.24-.61-1.24-.61,0,0,1.51,1.21,4.37,3.04,2.87,1.8,7.08,4.24,12.44,6.57,2.68,1.15,5.63,2.35,8.84,3.34,3.2,1.02,6.63,1.99,10.26,2.64,3.61,.73,7.43,1.17,11.31,1.38,3.89,.06,7.87,.07,11.82-.5,1.98-.19,3.92-.68,5.87-1.04,1.05-.25,2.1-.53,3.13-.82-7.19,19.14-43.9,38.57-69.66,19.46Zm45,54.52s25.64-25.98,63.89-24.1c24.11,1.19,48.78,17.78,50.6,28.93-1.5,.43-3.02,.84-4.56,1.18-1.72,.29-3.42,.7-5.17,.85-3.46,.55-6.99,.59-10.45,.59-3.46-.18-6.89-.32-10.17-.87-3.29-.48-6.46-1.09-9.44-1.82-2.98-.73-5.77-1.54-8.34-2.35-5.12-1.66-9.32-3.35-12.23-4.6-1.44-.65-2.6-1.14-3.36-1.51-.77-.37-1.18-.57-1.18-.57,0,0,1.43,1.14,4.12,2.87,2.7,1.7,6.68,4,11.74,6.2,2.53,1.09,5.31,2.21,8.34,3.15,3.02,.96,6.26,1.88,9.69,2.49,3.41,.69,7.01,1.1,10.68,1.3,3.67,.06,7.43,.06,11.16-.47,1.87-.18,3.7-.64,5.54-.98,.99-.24,1.98-.5,2.96-.77-6.78,18.07-41.44,36.41-65.76,18.37-23.41-17.37-30.99-28.06-48.07-27.89Z"/><path class="cls-1" d="M442.53,275.51c-17.29,31.96-10.69,58.64-11.26,89.99-.55,30-4.32,48.47-8.72,65.31,47.69-45.53,77.45-109.67,77.45-180.81,0-17.79-1.89-35.13-5.42-51.87-12.12,15.21-34.47,44.89-52.05,77.38Z"/></g></g></svg>